<svg width="21" height="21" viewBox="0 0 21 21" fill="none" xmlns="http://www.w3.org/2000/svg">
<path fill-rule="evenodd" clip-rule="evenodd" d="M9.33146 0.0214844C11.7107 0.0214844 13.6526 1.89542 13.7616 4.24772L13.7665 4.45648V5.38948C13.7665 5.8037 13.4307 6.13948 13.0165 6.13948C12.6368 6.13948 12.323 5.85733 12.2733 5.49125L12.2665 5.38948V4.45648C12.2665 2.89358 11.0444 1.61575 9.5039 1.52647L9.33146 1.52148H4.45646C2.89441 1.52148 1.61671 2.74362 1.52744 4.28406L1.52246 4.45648V15.5865C1.52246 17.1493 2.74436 18.4272 4.28412 18.5165L4.45646 18.5215H9.34146C10.8988 18.5215 12.1725 17.3039 12.2615 15.7693L12.2665 15.5975V14.6545C12.2665 14.2403 12.6022 13.9045 13.0165 13.9045C13.3962 13.9045 13.71 14.1866 13.7596 14.5527L13.7665 14.6545V15.5975C13.7665 17.9687 11.8997 19.9046 9.55581 20.0164L9.34146 20.0215H4.45646C2.07802 20.0215 0.136302 18.1474 0.0272881 15.7952L0.0224609 15.5865V4.45648C0.0224609 2.07743 1.89622 0.135347 4.24777 0.0263125L4.45646 0.0214844H9.33146ZM20.5467 10.1604C20.591 9.92468 20.5217 9.67183 20.3388 9.48978L17.4108 6.57478L17.3265 6.50234C17.0324 6.28514 16.6158 6.31028 16.3502 6.57714L16.2777 6.66142C16.0605 6.95551 16.0857 7.37212 16.3525 7.63779L17.9943 9.27148H7.76855L7.66678 9.27833C7.30071 9.32799 7.01855 9.64179 7.01855 10.0215C7.01855 10.4357 7.35434 10.7715 7.76855 10.7715H17.9924L16.3524 12.4059L16.2796 12.4898C16.0612 12.783 16.0845 13.1997 16.3502 13.4665C16.6425 13.76 17.1174 13.761 17.4109 13.4687L20.3316 10.5599C20.3607 10.5318 20.3875 10.5012 20.4117 10.4687L20.4119 10.4685C20.4527 10.4136 20.4851 10.3545 20.509 10.2928C20.5254 10.2504 20.5382 10.2061 20.5467 10.1604Z" fill="#565656"/>
</svg>
